solid OpenSCAD_Model
  facet normal -1 0 0
    outer loop
      vertex -100 -75 -25
      vertex -100 75 -5
      vertex -100 75 -25
    endloop
  endfacet
  facet normal -1 -0 0
    outer loop
      vertex -100 75 -5
      vertex -100 -75 -25
      vertex -100 -75 -5
    endloop
  endfacet
  facet normal 0 0 1
    outer loop
      vertex 100 75 -5
      vertex 75 -35 -5
      vertex 100 -75 -5
    endloop
  endfacet
  facet normal 0 0 1
    outer loop
      vertex 100 75 -5
      vertex -75 -35 -5
      vertex 75 -35 -5
    endloop
  endfacet
  facet normal -0 0 1
    outer loop
      vertex -100 75 -5
      vertex -75 -35 -5
      vertex 100 75 -5
    endloop
  endfacet
  facet normal 0 0 1
    outer loop
      vertex -100 -75 -5
      vertex -75 -35 -5
      vertex -100 75 -5
    endloop
  endfacet
  facet normal 0 0 1
    outer loop
      vertex -75 -35 -5
      vertex -100 -75 -5
      vertex -75 -75 -5
    endloop
  endfacet
  facet normal 0 0 1
    outer loop
      vertex 100 -75 -5
      vertex 75 -35 -5
      vertex 75 -75 -5
    endloop
  endfacet
  facet normal 1 -0 0
    outer loop
      vertex 100 -75 -5
      vertex 100 75 -25
      vertex 100 75 -5
    endloop
  endfacet
  facet normal 1 0 0
    outer loop
      vertex 100 75 -25
      vertex 100 -75 -5
      vertex 100 -75 -25
    endloop
  endfacet
  facet normal 0 1 -0
    outer loop
      vertex 100 75 -25
      vertex -100 75 -5
      vertex 100 75 -5
    endloop
  endfacet
  facet normal 0 1 0
    outer loop
      vertex -100 75 -5
      vertex 100 75 -25
      vertex -100 75 -25
    endloop
  endfacet
  facet normal 0 0 -1
    outer loop
      vertex -100 -75 -25
      vertex 100 75 -25
      vertex 100 -75 -25
    endloop
  endfacet
  facet normal -0 0 -1
    outer loop
      vertex 100 75 -25
      vertex -100 -75 -25
      vertex -100 75 -25
    endloop
  endfacet
  facet normal 0 -1 0
    outer loop
      vertex -100 -75 -25
      vertex -75 -75 -5
      vertex -100 -75 -5
    endloop
  endfacet
  facet normal 0 -1 -0
    outer loop
      vertex -75 -75 -5
      vertex -100 -75 -25
      vertex 75 -75 -5
    endloop
  endfacet
  facet normal 0 -1 0
    outer loop
      vertex 100 -75 -25
      vertex 75 -75 -5
      vertex -100 -75 -25
    endloop
  endfacet
  facet normal 0 -1 0
    outer loop
      vertex 75 -75 -5
      vertex 100 -75 -25
      vertex 100 -75 -5
    endloop
  endfacet
  facet normal 0 -1 0
    outer loop
      vertex -75 -75 -5
      vertex 75 -75 15
      vertex -75 -75 15
    endloop
  endfacet
  facet normal 0 -1 -0
    outer loop
      vertex 75 -75 15
      vertex -75 -75 -5
      vertex 75 -75 -5
    endloop
  endfacet
  facet normal -1 0 0
    outer loop
      vertex -75 -75 -5
      vertex -75 -35 15
      vertex -75 -35 -5
    endloop
  endfacet
  facet normal -1 -0 0
    outer loop
      vertex -75 -35 15
      vertex -75 -75 -5
      vertex -75 -75 15
    endloop
  endfacet
  facet normal -0 0 1
    outer loop
      vertex -75 -35 15
      vertex 75 -75 15
      vertex 75 -35 15
    endloop
  endfacet
  facet normal 0 0 1
    outer loop
      vertex 75 -75 15
      vertex -75 -35 15
      vertex -75 -75 15
    endloop
  endfacet
  facet normal 1 -0 0
    outer loop
      vertex 75 -75 15
      vertex 75 -35 -5
      vertex 75 -35 15
    endloop
  endfacet
  facet normal 1 0 0
    outer loop
      vertex 75 -35 -5
      vertex 75 -75 15
      vertex 75 -75 -5
    endloop
  endfacet
  facet normal 0 1 -0
    outer loop
      vertex 75 -35 -5
      vertex -75 -35 15
      vertex 75 -35 15
    endloop
  endfacet
  facet normal 0 1 0
    outer loop
      vertex -75 -35 15
      vertex 75 -35 -5
      vertex -75 -35 -5
    endloop
  endfacet
endsolid OpenSCAD_Model
