solid OpenSCAD_Model
  facet normal -1 0 0
    outer loop
      vertex -100 -75 -28
      vertex -100 75 -8
      vertex -100 75 -28
    endloop
  endfacet
  facet normal -1 -0 0
    outer loop
      vertex -100 75 -8
      vertex -100 -75 -28
      vertex -100 -75 -8
    endloop
  endfacet
  facet normal 0 0 1
    outer loop
      vertex 100 75 -8
      vertex 80 -16.8 -8
      vertex 100 -75 -8
    endloop
  endfacet
  facet normal 0 0 1
    outer loop
      vertex 100 75 -8
      vertex -73.6 -16.8 -8
      vertex 80 -16.8 -8
    endloop
  endfacet
  facet normal -0 0 1
    outer loop
      vertex -100 75 -8
      vertex -73.6 -16.8 -8
      vertex 100 75 -8
    endloop
  endfacet
  facet normal 0 0 1
    outer loop
      vertex -73.6 -16.8 -8
      vertex -100 75 -8
      vertex -80 -16.8 -8
    endloop
  endfacet
  facet normal 0 0 1
    outer loop
      vertex -100 -75 -8
      vertex -80 -16.8 -8
      vertex -100 75 -8
    endloop
  endfacet
  facet normal 0 0 1
    outer loop
      vertex -80 -16.8 -8
      vertex -100 -75 -8
      vertex -80 -75 -8
    endloop
  endfacet
  facet normal -0 0 1
    outer loop
      vertex 80 -35 -8
      vertex 100 -75 -8
      vertex 80 -16.8 -8
    endloop
  endfacet
  facet normal 0 0 1
    outer loop
      vertex 100 -75 -8
      vertex 80 -35 -8
      vertex 80 -75 -8
    endloop
  endfacet
  facet normal 1 -0 0
    outer loop
      vertex 100 -75 -8
      vertex 100 75 -28
      vertex 100 75 -8
    endloop
  endfacet
  facet normal 1 0 0
    outer loop
      vertex 100 75 -28
      vertex 100 -75 -8
      vertex 100 -75 -28
    endloop
  endfacet
  facet normal 0 1 -0
    outer loop
      vertex 100 75 -28
      vertex -100 75 -8
      vertex 100 75 -8
    endloop
  endfacet
  facet normal 0 1 0
    outer loop
      vertex -100 75 -8
      vertex 100 75 -28
      vertex -100 75 -28
    endloop
  endfacet
  facet normal 0 0 -1
    outer loop
      vertex -100 -75 -28
      vertex 100 75 -28
      vertex 100 -75 -28
    endloop
  endfacet
  facet normal -0 0 -1
    outer loop
      vertex 100 75 -28
      vertex -100 -75 -28
      vertex -100 75 -28
    endloop
  endfacet
  facet normal 0 -1 0
    outer loop
      vertex -100 -75 -28
      vertex -80 -75 -8
      vertex -100 -75 -8
    endloop
  endfacet
  facet normal 0 -1 -0
    outer loop
      vertex -80 -75 -8
      vertex -100 -75 -28
      vertex 80 -75 -8
    endloop
  endfacet
  facet normal 0 -1 0
    outer loop
      vertex 100 -75 -28
      vertex 80 -75 -8
      vertex -100 -75 -28
    endloop
  endfacet
  facet normal 0 -1 0
    outer loop
      vertex 80 -75 -8
      vertex 100 -75 -28
      vertex 100 -75 -8
    endloop
  endfacet
  facet normal 0 -1 0
    outer loop
      vertex -80 -75 -8
      vertex 80 -75 16.5
      vertex -80 -75 16.5
    endloop
  endfacet
  facet normal 0 -1 -0
    outer loop
      vertex 80 -75 16.5
      vertex -80 -75 -8
      vertex 80 -75 -8
    endloop
  endfacet
  facet normal 1 0 0
    outer loop
      vertex 80 -35 14.75
      vertex 80 -35 -8
      vertex 80 -16.8 -8
    endloop
  endfacet
  facet normal 3.91944e-09 0.780869 0.624695
    outer loop
      vertex -73.6 -16.8 -8
      vertex -80 -35 14.75
      vertex 72 -35 14.75
    endloop
  endfacet
  facet normal 0 0.780869 0.624695
    outer loop
      vertex -80 -35 14.75
      vertex -73.6 -16.8 -8
      vertex -80 -16.8 -8
    endloop
  endfacet
  facet normal 0 0.780869 0.624695
    outer loop
      vertex 80 -16.8 -8
      vertex 72 -35 14.75
      vertex 80 -35 14.75
    endloop
  endfacet
  facet normal 0 0.780869 0.624695
    outer loop
      vertex 72 -35 14.75
      vertex 80 -16.8 -8
      vertex -73.6 -16.8 -8
    endloop
  endfacet
  facet normal -1 0 0
    outer loop
      vertex -80 -75 -8
      vertex -80 -35 14.75
      vertex -80 -16.8 -8
    endloop
  endfacet
  facet normal -1 0 0
    outer loop
      vertex -80 -75 16.5
      vertex -80 -35 14.75
      vertex -80 -75 -8
    endloop
  endfacet
  facet normal -1 0 0
    outer loop
      vertex -80 -35 14.75
      vertex -80 -75 16.5
      vertex -80 -35 16.5
    endloop
  endfacet
  facet normal -0 0 1
    outer loop
      vertex -80 -35 16.5
      vertex 80 -75 16.5
      vertex 80 -35 16.5
    endloop
  endfacet
  facet normal 0 0 1
    outer loop
      vertex 80 -75 16.5
      vertex -80 -35 16.5
      vertex -80 -75 16.5
    endloop
  endfacet
  facet normal 1 -0 0
    outer loop
      vertex 80 -75 16.5
      vertex 80 -35 14.75
      vertex 80 -35 16.5
    endloop
  endfacet
  facet normal 1 0 0
    outer loop
      vertex 80 -75 -8
      vertex 80 -35 14.75
      vertex 80 -75 16.5
    endloop
  endfacet
  facet normal 1 0 0
    outer loop
      vertex 80 -35 14.75
      vertex 80 -75 -8
      vertex 80 -35 -8
    endloop
  endfacet
  facet normal 0 1 -0
    outer loop
      vertex 72 -35 14.75
      vertex -80 -35 16.5
      vertex 80 -35 16.5
    endloop
  endfacet
  facet normal 0 1 0
    outer loop
      vertex 72 -35 14.75
      vertex 80 -35 16.5
      vertex 80 -35 14.75
    endloop
  endfacet
  facet normal 0 1 0
    outer loop
      vertex -80 -35 16.5
      vertex 72 -35 14.75
      vertex -80 -35 14.75
    endloop
  endfacet
endsolid OpenSCAD_Model
